<svg width="16" height="15" viewBox="0 0 16 15" xmlns="http://www.w3.org/2000/svg">
<path d="M4.78585 8.6811C5.22637 8.6811 5.58349 8.32862 5.58349 7.89382C5.58349 7.45901 5.22637 7.10653 4.78585 7.10653C4.34532 7.10653 3.98821 7.45901 3.98821 7.89382C3.98821 8.32862 4.34532 8.6811 4.78585 8.6811Z" />
<path d="M8.77405 7.89382C8.77405 8.32862 8.41694 8.6811 7.97641 8.6811C7.53589 8.6811 7.17877 8.32862 7.17877 7.89382C7.17877 7.45901 7.53589 7.10653 7.97641 7.10653C8.41694 7.10653 8.77405 7.45901 8.77405 7.89382Z" />
<path d="M11.167 8.6811C11.6075 8.6811 11.9646 8.32862 11.9646 7.89382C11.9646 7.45901 11.6075 7.10653 11.167 7.10653C10.7264 7.10653 10.3693 7.45901 10.3693 7.89382C10.3693 8.32862 10.7264 8.6811 11.167 8.6811Z" />
<path d="M5.58349 11.0429C5.58349 11.4777 5.22637 11.8302 4.78585 11.8302C4.34532 11.8302 3.98821 11.4777 3.98821 11.0429C3.98821 10.6081 4.34532 10.2557 4.78585 10.2557C5.22637 10.2557 5.58349 10.6081 5.58349 11.0429Z" />
<path d="M7.97641 11.8302C8.41694 11.8302 8.77405 11.4777 8.77405 11.0429C8.77405 10.6081 8.41694 10.2557 7.97641 10.2557C7.53589 10.2557 7.17877 10.6081 7.17877 11.0429C7.17877 11.4777 7.53589 11.8302 7.97641 11.8302Z" />
<path fill-rule="evenodd" clip-rule="evenodd" d="M4.78585 0.808278C4.78585 0.373474 4.42873 0.0209961 3.98821 0.0209961C3.54768 0.0209961 3.19056 0.373474 3.19056 0.808278H1.59528C0.714232 0.808278 0 1.51323 0 2.38284V13.4048C0 14.2744 0.714233 14.9794 1.59528 14.9794H14.3575C15.2386 14.9794 15.9528 14.2744 15.9528 13.4048V2.38284C15.9528 1.51323 15.2386 0.808278 14.3575 0.808278H12.7623C12.7623 0.373474 12.4051 0.0209961 11.9646 0.0209961C11.5241 0.0209961 11.167 0.373474 11.167 0.808278H4.78585ZM1.59528 3.95741V2.38284H14.3575V3.95741H1.59528ZM1.59528 5.53197V13.4048H9.70857L14.3575 8.8162V5.53197H1.59528ZM14.3575 11.043L11.9646 13.4048H14.3575V11.043Z" />
</svg>
